<svg width="19" height="26" viewBox="0 0 19 26" fill="none" xmlns="http://www.w3.org/2000/svg">
<path d="M10.976 25.9775C8.736 25.9775 7.072 25.0495 5.856 23.7055L5.6 24.2495C5.088 25.3375 4.704 25.7855 3.648 25.7855C2.56 25.7855 2.144 25.0815 2.144 23.7055V5.91354C2.144 4.63354 1.824 4.34554 1.216 3.96154L0.672 3.64154C0.224 3.25754 0 3.06554 0 2.61754C0 2.13754 0.288 1.78554 0.96 1.59354L5.952 0.0895366C6.816 -0.166464 7.232 0.121536 7.232 1.01754V10.4575C8.256 9.43354 9.664 8.76154 11.52 8.76154C15.328 8.76154 18.656 11.8335 18.656 17.4015C18.656 23.0015 15.36 25.9775 10.976 25.9775ZM7.232 19.0655C7.232 21.2415 8.768 23.2895 10.688 23.2895C12.544 23.2895 13.6 21.7535 13.6 18.4895C13.6 14.6175 12.416 11.6415 10.016 11.6415C8.384 11.6415 7.296 13.3375 7.232 15.8015V19.0655Z" fill="#44584B"/>
</svg>
